<?xml version="1.0" encoding="UTF-8"?><svg id="Capa_2" xmlns="http://www.w3.org/2000/svg" xmlns:xlink="http://www.w3.org/1999/xlink" viewBox="0 0 70.22 96.32"><defs><style>.cls-1{fill:url(#_Безымянный_градиент_6);}</style><linearGradient id="_Безымянный_градиент_6" x1="95.8" y1="30.83" x2="-55.38" y2="80.53" gradientUnits="userSpaceOnUse"><stop offset="0" stop-color="#c6843d"/><stop offset=".48" stop-color="#fff29f"/><stop offset=".61" stop-color="#fdef9c"/><stop offset=".71" stop-color="#f8e593"/><stop offset=".79" stop-color="#f0d585"/><stop offset=".87" stop-color="#e4bf71"/><stop offset=".94" stop-color="#d6a257"/><stop offset="1" stop-color="#c7863d"/></linearGradient></defs><g id="OBJECTS"><path class="cls-1" d="M22.69,42.67c.47-.22.9-.54,1.46-.2.17-.31.31-.56.44-.8q-.69-.68-1.12-.35c-.45-.27-.79-.53-1.17-.69-.52-.21-1.18.05-1.51.52-.3.43-.24.78.24,1.34.53.62.66.65,1.67.18ZM21.23,46.45c-.27-.23-.72-.39-1.07-.35-.41.05-.98.1-.99.63-.44.58-.77,1.12-.61,1.74.21.81,2,1.2,2.61.61.47-.45.57-2.2.07-2.63ZM59.18.99c-.34.24-.26.45.1.71.23.16.44.35.64.54.27.26.55.41.95.32.03,0,.05-.02.07-.02,1.12.09,1.88-.54,1.92-1.34-.03-.65-.3-1.63-2.22-.98-.52.18-1.02.45-1.47.77ZM64.72,32.76c-.64-1.2-.65-1.2-2.14-1.03-.11-.25-.22-.51-.33-.78-.07.02-.14.04-.2.06.05.29.09.57.14.86.03.19.14.45.06.57-.52.73-.06,1.32.13,1.78.87.58,1.6.45,2.25-.07.31-.25.32-1,.11-1.4ZM38.75,43.03c-.08.15-.12.34-.23.44-.61.55-.62,1.2-.34,1.86.47.18.83.32,1.19.46.37.14.74.4,1.11.41,1.5.04,2.42-1.01,2.33-2.51-.02-.33.09-.66.14-.98-.47-.2-.96-.39-1.45-.61-1.19-.53-2.15-.21-2.75.93ZM34.57,65.18c-.38.42-.2,1.68.3,2.08.52.42,1.24.29,1.75-.32.39-.46.27-1.21-.26-1.67-.57-.49-1.39-.53-1.8-.08ZM25.59,93.25c-.58-.33-2.04.02-2.37.56-.37.6-.06,1.8.57,2.2.85.55,1.58.35,2.16-.58.4-.64.19-1.88-.36-2.19ZM22.8,92.26c.14-.5.1-1.06-.45-1.43-.56-.39-1.14-.38-1.71-.1-.32.16-.6.41-.93.64.02.21.06.41.05.6-.01.2-.07.39-.1.5.56,1.56,1.88.79,2.8,1.15.12.05.34-.14.61-.26-.32-.35-.39-.66-.27-1.1ZM36.71,68.73c-1.5-.1-2.42.67-2.44,2.07,0,.2.02.41-.02.6-.18.72-.02,1.32.5,1.72.73-.06,1.31-.1,1.89-.14.91-.06,1.85-.94,1.96-1.82.14-1.18-.76-2.34-1.87-2.42ZM33.66,47.3c-.27-.42-.24-.89-.02-1.35.08-.17.04-.39.06-.59.03.44.24.73.66.87q.39-.98-.3-1.56c-.14.21-.27.41-.4.61-.52-.07-1.06.02-1.56.11-.53.09-1.01.47-1.52.72-.66.33-1.24,1.44-1.13,2.18.23,1.57.54,1.85,2.12,1.86,1.52,0,2.86-1.65,2.09-2.85ZM37.49,85.58c-.56-.17-.89.1-1.2.48-.31.38-.63.76-1.01,1.22.38,1.35,1.06,1.56,2.19.67.09-.07.27-.04.37-.1.36-.21.7-.98.62-1.38-.11-.53-.48-.75-.96-.9ZM21.2,83.04c-.23-.33-.42-.68-.68-.96-.34-.37-.82-.34-1.2-.13-.32.18-.64.47-.59.95.05.53.42.71.85.84.7.21,1.1-.29,1.61-.69ZM19.8,77.95c.43-.44.46-1.06-.14-1.53-.55-.43-1.51-.24-1.96.37-.4.54-.35,1.18.13,1.52.76.54,1.37.43,1.97-.35ZM55.86,32.96c-.23-.03-.45-.12-.69-.15-.2-.03-.4-.03-.6,0-.52.08-.98.53-1.02.97-.03.38.55,1.38.88,1.35.54-.06,1.18-.16,1.57-.49.4-.34.86-.88.51-1.66-.26,0-.46.02-.66,0ZM65.41,50.43c-.46.17-.92.34-1.58.59-.04.22-.16.55-.12.86.03.22.29.41.43.62.45.7,1.14.11,1.71.3.45.15,1.2-.73,1.2-1.22,0-.88-.81-1.46-1.64-1.16ZM69.33,54.84c-.37.13-.77.21-1.16.27-.75.1-1.25.49-1.4,1.22-.14.66.01,1.21.58,1.69.61.52,1.33.36,1.96.5.19-.34.41-.58.47-.86.18-.77.39-1.54.43-2.32.03-.57-.31-.69-.88-.5ZM51.97,50.49c-.71-.51-1.82-.33-2.28.36-.56.84-.44,1.76.31,2.26.65.44,1.72.19,2.21-.51.51-.72.4-1.66-.24-2.12ZM50.69,48.7c.5-.77.54-1.27.04-1.82-.37-.41-.86-.63-1.43-.6-.51.03-1,.09-1.19.71-.05.17-.25.29-.34.38-.04.79.36,1.31.75,1.86.6.82.59.84,1.58.6.24-.46.38-.81.59-1.13ZM2.12,72.1c-.63-.34-1.48-.22-1.88.38-.46.4-.14,1-.03,1.57.1.52.44.85.93.79.38-.04.77-.2,1.09-.41.88-.55.8-1.83-.11-2.33Z"/></g></svg>