<?xml version="1.0" encoding="UTF-8"?><svg id="Capa_2" xmlns="http://www.w3.org/2000/svg" viewBox="0 0 70.91 122.34"><defs><style>.cls-1{fill:#ede1b7;}</style></defs><g id="Capa_1-2"><path class="cls-1" d="M35.34,122.34c-5.42,0-8.77-2.73-9.32-3.21H7.52v-2.96H0V6.17h7.75v-2.96h18.5c.55-.48,3.9-3.21,9.32-3.21s8.77,2.73,9.32,3.21h18.5v2.96h7.52v110h-7.75v2.96h-18.5c-.55.48-3.9,3.21-9.32,3.21ZM8.02,118.63h18.2l.07.07s3.44,3.14,9.05,3.14,9.02-3.11,9.05-3.14l.07-.07h18.2v-2.96h7.75V6.67h-7.52v-2.96h-18.2l-.07-.07s-3.44-3.14-9.05-3.14-9.02,3.11-9.05,3.14l-.07.07H8.25v2.96H.5v109h7.52v2.96Z"/></g></svg>